<svg xmlns="http://www.w3.org/2000/svg" width="256" height="256"><defs><path id="a" d="M120 90h60v70h-60z"/></defs><g paint-order="stroke fill markers"><path d="M32.721 219.12c-1.46-.735-2.836-1.643-4.484-1.869-1.58-.216-1.77-.038-3.315.286-6.43 3.878-13.008 7.506-19.29 11.636-.49.321-2.025 3.591-2.19 3.945-1.006 2.154-1.78 4.364-2.545 6.618-.828 2.604-1.29 5.686-.34 8.34.19.53.484 1.013.726 1.52.819 1.053 1.396 2.003 2.602 2.666 2.514 1.385 6.425 1.8 9.19 1.36 1.371-.22 2.683-.733 4.025-1.098 6.625-3.914 13.432-7.515 19.875-11.74 2.034-1.335 6-6.62 7.27-8.394 2.376-3.314 5.033-7.566 6.981-11.15 1.106-2.035 2.081-4.143 3.122-6.214.963-2.105 1.978-4.185 2.888-6.315.898-2.101 1.713-4.239 2.533-6.373 1.38-3.594 3.24-8.628 4.306-12.35 1.604-5.597 2.123-8.977 3.268-14.826.603-3.24 1.18-6.487 1.809-9.722.717-3.69 1.432-7.38 2.232-11.05 1.845-8.462 3.536-14.913 5.653-23.31 3.804-15.081 2.012-8.175 5.98-22.987.953-3.528 1.91-7.055 2.858-10.584 2.3-8.565 2.715-9.758 4.514-18.186 1.54-7.216 2.74-14.496 3.914-21.783 1.452-10.426 2.82-20.87 3.773-31.358.419-7.175 1.032-14.337 2.473-21.376 2.17-9.227 1.913-4.185-19.545 7.566-.33.18.197.746.247 1.127.166 1.268.056 1.966-.015 3.289-.39 5.559-.884 11.11-1.175 16.676-.156 5.4-.043 10.804-.158 16.205-.066 3.087-.193 6.173-.286 9.259-.237 5.607-.527 11.223-.412 16.837.032 1.533.142 3.063.19 4.596.05 1.649.07 3.298.106 4.947.505 8.707.918 17.419 1.295 26.132.115 2.65.27 5.298.362 7.95.094 2.684.132 5.37.198 8.055.047 2.647.061 5.295.142 7.942.083 2.7.248 5.397.351 8.097.205 5.407.295 10.818.506 16.225.777 19.885.073-3.313.616 16.046.329 7.99-.337 16.027.419 24.002.432 4.555.647 4.78 1.698 9.234 1.203 4.292 2.652 8.522 4.607 12.514 1.7 3.471 3.8 6.723 5.825 9.994 2.65 3.857 5.168 7.811 7.958 11.562.975 1.202 1.717 2.385 3.017 3.222 1.155.69 2.373 1.193 3.642 1.605 1.288.276 2.581.578 3.891.729 1.175.108 2.358.018 3.536 0 .985-.046 1.971.173 2.951.078.022-.005.523-.107.58-.102.399.038.546.211.899-.135 6.436-4.098-5.203 3.311 19.357-11.297.073-.044-.004-.195.057-.256.04-.04.131.08.165.034.283-.389-.204-.289.21-.323.21-.247.476-.113.72-.351.463-.452.98-1.339 1.37-1.868 1.456-2.152 2.15-4.705 2.972-7.159.625-2.214 1.178-4.449 1.763-6.675l-18.894 9.391c-.425 2.193-.981 4.35-1.855 6.404-.96 2.378-1.93 4.8-3.773 6.61-.608.567-.752.76-1.45 1.185-.423.259-.627.235-.988.551-.082.072-.124.185-.2.264-.06.063-.136.108-.205.161-.32.623.113-.044-.312.144-.065.029-.02.168-.083.202-.051.027-.21-.042-.16-.072 18.655-11.033 26.15-11.88 18.74-11.015-.223.003-.444.059-.596.256-.058.075-.045.203-.12.259-.18.132-.476-.024-.652.109-.383.104-.777.316-1.165.38-.593.098-1.22-.028-1.815.057-1.1-.013-2.197-.077-3.296-.041-1.26.02-2.528.028-3.773-.212-1.129-.267-2.228-.597-3.218-1.235-.394-.199-.818-.375-1.19-.616-.754-.487-1.413-1.116-2.13-1.656-.815-.687-1.556-1.29-2.328-2.044-2.586-2.524-4.854-5.365-7.077-8.227-1.826-2.48-2.523-3.319-4.167-6-2.927-4.778-5.27-9.926-6.747-15.38-.323-1.5-.685-2.99-.967-4.499-.279-1.486-.485-2.986-.715-4.481-1.157-7.523-2.128-15.077-2.684-22.675-.175-2.567-.396-5.13-.526-7.7-.139-2.738-.182-5.48-.282-8.218-.276-7.57-.369-8.585-.568-16.189-.07-2.726-.099-5.453-.17-8.18-.069-2.628-.166-5.255-.249-7.884-.066-2.682-.174-5.363-.197-8.046-.024-2.721.033-5.442.055-8.164.07-9.043.23-18.09.654-27.124l.131-5.068c.077-1.603.18-3.205.231-4.809.177-5.539.051-11.085.089-16.625.207-8.675.566-17.351 1.605-25.97.508-5.686.942-11.407 2.165-16.99.177-.723.588-2.798 1.087-3.524.135-.196.85-.387.64-.286-6.597 3.158-13.2 6.306-19.8 9.459.082.082.204.136.244.246.117.33.142.686.213 1.03.522 6.782.077 13.59-.519 20.352-.251 3.631-.377 5.304-.59 8.953-.092 1.584-.151 3.17-.257 4.753-.372 5.592-.962 11.166-1.365 16.755-.539 5.89-.625 7.272-1.348 13.287-1.419 11.807-3.402 23.55-6.083 35.122-4.019 16.88-1.246 5.47-5.608 22.806-3.827 15.21-7.546 30.464-12.362 45.383-1.674 5.188-3.328 10.383-5.013 15.567-2.716 8.355-5.447 16.734-9.403 24.572-1.106 2.06-2.144 4.16-3.319 6.177-3.28 5.635-7.158 11.361-11.844 15.853-1.386 1.328-6.182 4.398-4.44 3.642 4.248-1.844 8.05-4.638 12.076-6.957-1.108.383-2.181.902-3.325 1.149-2.702.583-6.274.256-8.35-1.846-.301-.306-.522-.687-.783-1.03-.16-.378-.36-.74-.482-1.132-.715-2.303-.127-4.772.367-7.045.606-2.103 1.285-4.142 2.446-6.005.431-.692.9-1.365 1.44-1.971 3.745-4.215 25.408-15.272-14.892 8.14.413-.256.794-.577 1.238-.77 1.67-.727 3.398-.085 4.636 1.143l18.391-12.12z"/><path d="M36.783 151.167c4.265 2.173 8.181 4.98 12.462 7.133 2.286 1.15 4.64 2.15 6.951 3.241 2.506 1.184 5.002 2.39 7.502 3.585 8.273 4.095 17.183 6.29 26.057 8.449 6.067 1.475 12.16 2.831 18.245 4.228l14.449-10.6c-1.88-.056-3.761-.058-5.639-.167-4.9-.284-10.679-.84-15.462-1.758-8.717-1.67-17.132-4.52-25.018-8.732-2.263-1.324-4.601-2.517-6.789-3.97-1.883-1.251-3.641-2.696-5.4-4.128-2.662-2.165-5.812-5.083-8.027-7.809-.328-.403-.589-.86-.883-1.292l-18.448 11.82zM224.011 15.733c-.21-.007-.4.023-.546.11-13.203 7.824-17.433 5.071-19.78 14.011a24.63 24.63 0 00-.355 1.669c-.598-.102-1.196-.2-1.79-.32-2.134-.465-3.766-.953-5.774-1.794-.279-.117-.57-.203-.84-.34-.219-.113-.413-.272-.62-.409l-18.133 12.728c.28.052.563.088.84.156.746.181 1.472.444 2.216.636 1.794.464 3.613.82 5.427 1.186 3.389.806 6.831 1.308 10.289 1.679 2.6.195 5.212.261 7.82.21-.011 2.812-.09 2.03-.047 5.296.014 1.027.066 2.053.086 3.08.065 3.4.035 3.47-.002 6.93-.193 8.066-.213 16.133-.116 24.2.027 1.562.068 3.125.081 4.688.045 5.594-.042 3.863-.037 9.386.004 4.55.114 9.1.159 13.65.207 9.689.158 19.384-.081 29.07-.155 5.442-.682 10.864-.88 16.303-.08 2.215-.081 4.43-.144 6.646-.004 1.141-.009 2.284-.009 3.425 0 1.236.023 2.47.002 3.706-.055 3.31-.176 4.154-.323 7.442-.09 2.022-.072 1.856-.083 2.284-1.428.208-2.853.43-4.263.736-11.934 2.588-21.855 9.398-32.207 15.985-4.236 3.187-5.962 4.079-9.344 8.16-2.742 3.31-3.572 5.067-4.946 9.04-.54 1.563-1.078 3.139-1.39 4.767-.27 1.421-.233 2.887-.349 4.331.118 1.404.112 2.825.354 4.212.459 2.63 1.659 5.753 2.678 8.173 1.745 4.146 3.71 8.169 6.962 11.288 2.314 1.936 3.355 2.971 5.933 4.49 2.672 1.573 5.755 2.753 8.796 3.266.858.144 1.732.15 2.598.227.802-.099 1.614-.137 2.406-.295 7.507-1.494 20.052-11.143 21.638-12.114 1.889-1.156 3.443-3.218 4.826-4.93 1.234-1.835 2.42-3.682 3.393-5.685.565-1.165.868-2.05 1.31-3.256.207-.564.41-1.13.616-1.696.609-1.819 1.195-3.647 1.877-5.439.409-1.072.856-2.069 1.205-3.16.113-.353.19-.717.284-1.075.382-2.148.722-4.303 1.144-6.443.497-2.785.829-5.597 1.358-8.376.432-3.427.904-6.85 1.202-10.294.178-2.216.372-4.432.462-6.655.035-.874.025-.912.034-1.297 4.994-1.177 9.8-2.411 14.958-4.35 4.084-1.536 8.182-3.131 11.99-5.299 4.774-2.719 8.22-4.78 11.131-6.62a9.077 9.077 0 01-.512-.75 1.496 1.496 0 01-.589-.709c-.424.382-.863.74-1.363 1-10.013 5.231-20.88 8.006-31.88 9.874-1.2.175-2.398.347-3.597.524.017-.43.03-.86.045-1.29.438-11.703-.211 4.735.392-7.523.073-1.47.164-5.976.23-7.42.059-1.285.17-2.567.235-3.851.06-1.165.095-2.333.143-3.5.016-1.343.073-5.28.054-6.613-.07-5.22-.385-10.436-.32-15.658.1-6.636.026-3.3.22-10.008.027-1.614-.005-3.23.015-4.844.06-4.814.211-9.627.14-14.443-.086-6.062-.049-3.024-.111-9.108-.081-6.203-.335-12.409-.02-18.61.224-8.172.417-16.344.8-24.51.007-.151.32-6.879.333-7.135.057-1.083.148-2.164.187-3.247.012-.323.017-1.243.022-2.092 10.01-5.212 7.91-2.092 11.89-8.526 1.574-3.769.904-5.86-.804-9.357-1.493-2.262-3.345-3.727-5.677-4.937-.405-.204-1.22-.565-1.849-.586zm-16.095 12.778c.093 0 .133.084.089.292.075.016.145.038.22.055-.557.325-1.11.658-1.669.98-.414.238.957-1.328 1.36-1.327zm20.819 1.663c.46-.27-.892.592-1.361.845-.085.045-.173.078-.258.121.563-.333 1.025-.619 1.619-.966zM200.833 188.94c-.457 4.59-1.081 9.164-1.723 13.73-.527 3.485-1.028 6.979-1.735 10.43-.46 2.808-.958 5.606-1.494 8.399-.515 2.176-.943 4.375-1.483 6.544a68.841 68.841 0 01-2.763 9.048c-.926 2.184-1.723 4.449-2.897 6.511-3.858-.273-7.63-1.746-10.889-3.854-1.017-.659-1.944-1.455-2.917-2.182-.899-.91-1.876-1.746-2.698-2.73-2.789-3.34-4.609-7.255-5.728-11.492-.343-1.3-.635-2.62-.8-3.957-.161-1.302-.115-2.622-.173-3.933.133-1.337.15-2.692.398-4.012.89-4.733 2.766-8.875 5.888-12.477 1.113-1.283 2.017-2.196 2.897-2.974 1.116-.6 2.25-1.202 2.965-1.478a72.835 72.835 0 016.58-2.164c7.55-2.11 8.84-1.98 16.572-3.41zm2.489 49.406c-.326.227-2.33 1.397-4.452 2.526 3.568-2.091 4.745-2.73 4.452-2.526z"/><path d="M172.885 155.389c-2.307-1.567-4.468-3.35-6.589-5.172-4.46-4.084-8.356-8.76-12.136-13.506-3.716-4.954-7.01-10.27-9.682-15.904-.495-1.045-.942-2.115-1.413-3.173-1.397-3.57-2.743-7.27-3.145-11.13-.225-2.158-.089-2.548.102-4.671.442-2.534 1.18-5.057 2.627-7.186.703-1.035 1.219-1.488 2.077-2.368.823-.665 1.266-1.056 2.129-1.633.298-.2 1.226-.746.919-.561-14.973 9.018-10.65 6.078-7.415 4.577.195-.077.52-.237.75-.22 1 .077 1.348 1.51 1.602 2.265.435 1.823.59 3.753.189 5.602-.25 1.152-.63 2.05-1.04 3.15-1.58 3.608-3.634 6.961-5.649 10.32a675.43 675.43 0 01-7.946 12.723c-2.689 4.406-5.798 8.502-8.924 12.578-1.816 2.361-3.013 5.091-3.392 8.09-.075.59-.094 1.185-.141 1.778-.015 2.891.495 5.84 1.868 8.396.237.442.54.844.81 1.266.383.392.737.818 1.15 1.176 2.061 1.79 4.773 3.009 7.442 3.353.837.108 1.686.066 2.529.098 2.422-.287 3.023-.24 5.42-1.04 1.37-.458 4.547-1.854 5.824-2.585 9.419-5.389 8.076-4.55 13.562-8.276 4.887-3.47 9.263-7.63 13.625-11.765 2.062-2.023 4.196-3.977 6.463-5.753.056-.045.955-.754 1.076-.837.134-.09.556-.326.418-.243-15.567 9.388-11.221 6.576-7.934 4.816.601-5.527 7.665-3.377 10.455-6.43l-10.18 4.233c-3.174 1.907-6.8 4.626 8.225-4.885-4.073 2.395-8.503 4.294-12.05 7.496-1.98 1.757-3.912 3.563-5.711 5.521-4.245 4.157-8.653 8.154-13.517 11.528-.841.555-3.411 2.135-2.523 1.664 1.948-1.033 3.868-2.135 5.712-3.355.876-.58-1.851.978-2.796 1.425-2.135 1.01-3.195 1.472-5.453 1.985-.814.184-1.647.268-2.47.403-.781.002-1.566.08-2.344.006-3.006-.283-5.792-1.808-7.85-4.048-.252-.37-.532-.723-.757-1.112-1.36-2.352-1.826-5.112-1.687-7.818.07-.563.111-1.13.209-1.69.488-2.8 1.737-5.307 3.393-7.559 2.979-4.091 5.976-8.17 8.606-12.517 2.78-4.288 5.586-8.558 8.272-12.91 2.034-3.432 4.147-6.845 5.673-10.56.432-1.238.8-2.129 1.033-3.426.362-2.025.086-4.1-.274-6.098-.402-1.344-.939-3.333-2.518-3.681-.183-.04-.373-.009-.559-.013-.43.135-.811.231-1.211.466-4.445 2.61-9.032 4.624-12.664 8.275-.87 1.04-1.233 1.38-1.915 2.586-1.29 2.284-1.895 4.884-2.197 7.486-.097 2.15-.223 2.71.097 4.87.575 3.896 2.16 7.549 3.628 11.146 1.254 2.686 1.725 3.795 3.144 6.42 2.416 4.47 5.212 8.69 8.158 12.802 3.666 4.853 7.323 9.754 11.654 14.006.635.635 2.133 2.14 2.838 2.807.851.804 1.763 1.54 2.61 2.349.165.156.316.327.474.49l9.319-6.027z"/></g></svg>